<mxfile host="Electron" agent="Mozilla/5.0 (Windows NT 10.0; Win64; x64) AppleWebKit/537.36 (KHTML, like Gecko) draw.io/26.0.16 Chrome/132.0.6834.196 Electron/34.2.0 Safari/537.36" version="26.0.16">
  <diagram name="Use Case Diagram" id="GKpwC2eJSkF5a9-3lTnZ">
    <mxGraphModel dx="1727" dy="1040" grid="0" gridSize="10" guides="1" tooltips="1" connect="1" arrows="1" fold="1" page="1" pageScale="1" pageWidth="827" pageHeight="1169" math="0" shadow="0">
      <root>
        <mxCell id="0" />
        <mxCell id="1" parent="0" />
        <mxCell id="xZJvLFao9ESSEDFbBAeP-19" style="edgeStyle=none;shape=connector;rounded=0;orthogonalLoop=1;jettySize=auto;html=1;exitX=1;exitY=0.3333333333333333;exitDx=0;exitDy=0;exitPerimeter=0;entryX=0;entryY=0.5;entryDx=0;entryDy=0;strokeColor=default;align=center;verticalAlign=middle;fontFamily=Helvetica;fontSize=11;fontColor=default;labelBackgroundColor=default;endArrow=classic;" edge="1" parent="1" source="xZJvLFao9ESSEDFbBAeP-1" target="xZJvLFao9ESSEDFbBAeP-7">
          <mxGeometry relative="1" as="geometry" />
        </mxCell>
        <mxCell id="xZJvLFao9ESSEDFbBAeP-18" style="edgeStyle=none;shape=connector;rounded=0;orthogonalLoop=1;jettySize=auto;html=1;exitX=1;exitY=0.3333333333333333;exitDx=0;exitDy=0;exitPerimeter=0;entryX=0;entryY=0.5;entryDx=0;entryDy=0;strokeColor=default;align=center;verticalAlign=middle;fontFamily=Helvetica;fontSize=11;fontColor=default;labelBackgroundColor=default;endArrow=classic;" edge="1" parent="1" source="xZJvLFao9ESSEDFbBAeP-1" target="xZJvLFao9ESSEDFbBAeP-5">
          <mxGeometry relative="1" as="geometry" />
        </mxCell>
        <mxCell id="xZJvLFao9ESSEDFbBAeP-20" style="edgeStyle=none;shape=connector;rounded=0;orthogonalLoop=1;jettySize=auto;html=1;exitX=1;exitY=0.3333333333333333;exitDx=0;exitDy=0;exitPerimeter=0;entryX=0;entryY=0.5;entryDx=0;entryDy=0;strokeColor=default;align=center;verticalAlign=middle;fontFamily=Helvetica;fontSize=11;fontColor=default;labelBackgroundColor=default;endArrow=classic;" edge="1" parent="1" source="xZJvLFao9ESSEDFbBAeP-1" target="xZJvLFao9ESSEDFbBAeP-8">
          <mxGeometry relative="1" as="geometry" />
        </mxCell>
        <mxCell id="xZJvLFao9ESSEDFbBAeP-3" value="LIGHTNING TRADING WORKSTATION" style="rounded=0;whiteSpace=wrap;html=1;verticalAlign=top;fillColor=none;" vertex="1" parent="1">
          <mxGeometry x="168" y="40" width="528" height="1025" as="geometry" />
        </mxCell>
        <mxCell id="xZJvLFao9ESSEDFbBAeP-22" style="edgeStyle=none;shape=connector;rounded=0;orthogonalLoop=1;jettySize=auto;html=1;exitX=1;exitY=0.3333333333333333;exitDx=0;exitDy=0;exitPerimeter=0;entryX=0;entryY=0.5;entryDx=0;entryDy=0;strokeColor=default;align=center;verticalAlign=middle;fontFamily=Helvetica;fontSize=11;fontColor=default;labelBackgroundColor=default;endArrow=classic;" edge="1" parent="1" source="xZJvLFao9ESSEDFbBAeP-1" target="xZJvLFao9ESSEDFbBAeP-9">
          <mxGeometry relative="1" as="geometry" />
        </mxCell>
        <mxCell id="xZJvLFao9ESSEDFbBAeP-25" style="edgeStyle=none;shape=connector;rounded=0;orthogonalLoop=1;jettySize=auto;html=1;exitX=1;exitY=0.3333333333333333;exitDx=0;exitDy=0;exitPerimeter=0;entryX=0;entryY=0.5;entryDx=0;entryDy=0;strokeColor=default;align=center;verticalAlign=middle;fontFamily=Helvetica;fontSize=11;fontColor=default;labelBackgroundColor=default;endArrow=classic;" edge="1" parent="1" source="xZJvLFao9ESSEDFbBAeP-1" target="xZJvLFao9ESSEDFbBAeP-11">
          <mxGeometry relative="1" as="geometry" />
        </mxCell>
        <mxCell id="xZJvLFao9ESSEDFbBAeP-26" style="edgeStyle=none;shape=connector;rounded=0;orthogonalLoop=1;jettySize=auto;html=1;exitX=1;exitY=0.3333333333333333;exitDx=0;exitDy=0;exitPerimeter=0;entryX=0;entryY=0.5;entryDx=0;entryDy=0;strokeColor=default;align=center;verticalAlign=middle;fontFamily=Helvetica;fontSize=11;fontColor=default;labelBackgroundColor=default;endArrow=classic;" edge="1" parent="1" source="xZJvLFao9ESSEDFbBAeP-1" target="xZJvLFao9ESSEDFbBAeP-12">
          <mxGeometry relative="1" as="geometry" />
        </mxCell>
        <mxCell id="xZJvLFao9ESSEDFbBAeP-27" style="edgeStyle=none;shape=connector;rounded=0;orthogonalLoop=1;jettySize=auto;html=1;exitX=1;exitY=0.3333333333333333;exitDx=0;exitDy=0;exitPerimeter=0;entryX=0;entryY=0.5;entryDx=0;entryDy=0;strokeColor=default;align=center;verticalAlign=middle;fontFamily=Helvetica;fontSize=11;fontColor=default;labelBackgroundColor=default;endArrow=classic;" edge="1" parent="1" source="xZJvLFao9ESSEDFbBAeP-1" target="xZJvLFao9ESSEDFbBAeP-6">
          <mxGeometry relative="1" as="geometry" />
        </mxCell>
        <mxCell id="xZJvLFao9ESSEDFbBAeP-1" value="Trader" style="shape=umlActor;verticalLabelPosition=bottom;verticalAlign=top;html=1;" vertex="1" parent="1">
          <mxGeometry x="46" y="431" width="30" height="57" as="geometry" />
        </mxCell>
        <mxCell id="xZJvLFao9ESSEDFbBAeP-4" value="Exchange Api" style="shape=umlActor;verticalLabelPosition=bottom;verticalAlign=top;html=1;outlineConnect=0;" vertex="1" parent="1">
          <mxGeometry x="735" y="230" width="30" height="60" as="geometry" />
        </mxCell>
        <mxCell id="xZJvLFao9ESSEDFbBAeP-5" value="Login" style="ellipse;whiteSpace=wrap;html=1;" vertex="1" parent="1">
          <mxGeometry x="318" y="98" width="78" height="47" as="geometry" />
        </mxCell>
        <mxCell id="xZJvLFao9ESSEDFbBAeP-37" style="edgeStyle=none;shape=connector;rounded=0;orthogonalLoop=1;jettySize=auto;html=1;exitX=1;exitY=0.5;exitDx=0;exitDy=0;strokeColor=default;align=center;verticalAlign=middle;fontFamily=Helvetica;fontSize=11;fontColor=default;labelBackgroundColor=default;endArrow=classic;entryX=0;entryY=0.3333333333333333;entryDx=0;entryDy=0;entryPerimeter=0;" edge="1" parent="1" source="xZJvLFao9ESSEDFbBAeP-6" target="xZJvLFao9ESSEDFbBAeP-4">
          <mxGeometry relative="1" as="geometry">
            <mxPoint x="732.0588522518383" y="237.58823529411768" as="targetPoint" />
          </mxGeometry>
        </mxCell>
        <mxCell id="xZJvLFao9ESSEDFbBAeP-6" value="View Market Data" style="ellipse;whiteSpace=wrap;html=1;" vertex="1" parent="1">
          <mxGeometry x="311.5" y="178" width="106" height="61" as="geometry" />
        </mxCell>
        <mxCell id="xZJvLFao9ESSEDFbBAeP-7" value="Place Order" style="ellipse;whiteSpace=wrap;html=1;" vertex="1" parent="1">
          <mxGeometry x="317" y="292" width="98" height="39" as="geometry" />
        </mxCell>
        <mxCell id="xZJvLFao9ESSEDFbBAeP-8" value="Manage Orders" style="ellipse;whiteSpace=wrap;html=1;" vertex="1" parent="1">
          <mxGeometry x="314" y="418" width="101" height="42" as="geometry" />
        </mxCell>
        <mxCell id="xZJvLFao9ESSEDFbBAeP-9" value="View Portfolio" style="ellipse;whiteSpace=wrap;html=1;" vertex="1" parent="1">
          <mxGeometry x="321.5" y="578" width="116" height="38" as="geometry" />
        </mxCell>
        <mxCell id="xZJvLFao9ESSEDFbBAeP-11" value="View Transaction History" style="ellipse;whiteSpace=wrap;html=1;" vertex="1" parent="1">
          <mxGeometry x="318" y="802" width="169" height="59" as="geometry" />
        </mxCell>
        <mxCell id="xZJvLFao9ESSEDFbBAeP-12" value="View Charts" style="ellipse;whiteSpace=wrap;html=1;" vertex="1" parent="1">
          <mxGeometry x="301" y="944" width="168" height="41" as="geometry" />
        </mxCell>
        <mxCell id="xZJvLFao9ESSEDFbBAeP-13" value="Verify Balance" style="ellipse;whiteSpace=wrap;html=1;" vertex="1" parent="1">
          <mxGeometry x="308.5" y="371" width="112" height="30" as="geometry" />
        </mxCell>
        <mxCell id="xZJvLFao9ESSEDFbBAeP-14" value="Verify Order Status" style="ellipse;whiteSpace=wrap;html=1;" vertex="1" parent="1">
          <mxGeometry x="293.5" y="503" width="142" height="42" as="geometry" />
        </mxCell>
        <mxCell id="xZJvLFao9ESSEDFbBAeP-42" style="edgeStyle=none;shape=connector;rounded=0;orthogonalLoop=1;jettySize=auto;html=1;exitX=1;exitY=0.5;exitDx=0;exitDy=0;strokeColor=default;align=center;verticalAlign=middle;fontFamily=Helvetica;fontSize=11;fontColor=default;labelBackgroundColor=default;endArrow=classic;entryX=0;entryY=0.3333333333333333;entryDx=0;entryDy=0;entryPerimeter=0;" edge="1" parent="1" source="xZJvLFao9ESSEDFbBAeP-15" target="xZJvLFao9ESSEDFbBAeP-32">
          <mxGeometry relative="1" as="geometry">
            <mxPoint x="779.11767578125" y="690.2941032858457" as="targetPoint" />
          </mxGeometry>
        </mxCell>
        <mxCell id="xZJvLFao9ESSEDFbBAeP-15" value="Retrieve Account Data" style="ellipse;whiteSpace=wrap;html=1;" vertex="1" parent="1">
          <mxGeometry x="308" y="688" width="143" height="51" as="geometry" />
        </mxCell>
        <mxCell id="xZJvLFao9ESSEDFbBAeP-28" value="&amp;lt;&amp;lt;include&amp;gt;&amp;gt;" style="html=1;verticalAlign=bottom;labelBackgroundColor=none;endArrow=open;endFill=0;dashed=1;rounded=0;strokeColor=default;align=center;fontFamily=Helvetica;fontSize=11;fontColor=default;exitX=0.5;exitY=1;exitDx=0;exitDy=0;entryX=0.5;entryY=0;entryDx=0;entryDy=0;" edge="1" parent="1" source="xZJvLFao9ESSEDFbBAeP-7" target="xZJvLFao9ESSEDFbBAeP-13">
          <mxGeometry width="160" relative="1" as="geometry">
            <mxPoint x="382" y="266" as="sourcePoint" />
            <mxPoint x="542" y="266" as="targetPoint" />
          </mxGeometry>
        </mxCell>
        <mxCell id="xZJvLFao9ESSEDFbBAeP-29" value="&amp;lt;&amp;lt;include&amp;gt;&amp;gt;" style="html=1;verticalAlign=bottom;labelBackgroundColor=none;endArrow=open;endFill=0;dashed=1;rounded=0;strokeColor=default;align=center;fontFamily=Helvetica;fontSize=11;fontColor=default;exitX=0.5;exitY=1;exitDx=0;exitDy=0;" edge="1" parent="1" source="xZJvLFao9ESSEDFbBAeP-9" target="xZJvLFao9ESSEDFbBAeP-15">
          <mxGeometry width="160" relative="1" as="geometry">
            <mxPoint x="471" y="520" as="sourcePoint" />
            <mxPoint x="631" y="520" as="targetPoint" />
          </mxGeometry>
        </mxCell>
        <mxCell id="xZJvLFao9ESSEDFbBAeP-30" value="&amp;lt;&amp;lt;include&amp;gt;&amp;gt;" style="html=1;verticalAlign=bottom;labelBackgroundColor=none;endArrow=open;endFill=0;dashed=1;rounded=0;strokeColor=default;align=center;fontFamily=Helvetica;fontSize=11;fontColor=default;exitX=0.5;exitY=1;exitDx=0;exitDy=0;entryX=0.5;entryY=0;entryDx=0;entryDy=0;" edge="1" parent="1" source="xZJvLFao9ESSEDFbBAeP-8" target="xZJvLFao9ESSEDFbBAeP-14">
          <mxGeometry width="160" relative="1" as="geometry">
            <mxPoint x="480" y="550" as="sourcePoint" />
            <mxPoint x="640" y="550" as="targetPoint" />
          </mxGeometry>
        </mxCell>
        <mxCell id="xZJvLFao9ESSEDFbBAeP-32" value="Database" style="shape=umlActor;verticalLabelPosition=bottom;verticalAlign=top;html=1;outlineConnect=0;" vertex="1" parent="1">
          <mxGeometry x="742" y="714" width="30" height="60" as="geometry" />
        </mxCell>
        <mxCell id="xZJvLFao9ESSEDFbBAeP-34" style="edgeStyle=none;shape=connector;rounded=0;orthogonalLoop=1;jettySize=auto;html=1;exitX=1;exitY=0.5;exitDx=0;exitDy=0;entryX=0;entryY=0.3333333333333333;entryDx=0;entryDy=0;entryPerimeter=0;strokeColor=default;align=center;verticalAlign=middle;fontFamily=Helvetica;fontSize=11;fontColor=default;labelBackgroundColor=default;endArrow=classic;" edge="1" parent="1" source="xZJvLFao9ESSEDFbBAeP-5" target="xZJvLFao9ESSEDFbBAeP-32">
          <mxGeometry relative="1" as="geometry" />
        </mxCell>
        <mxCell id="xZJvLFao9ESSEDFbBAeP-35" style="edgeStyle=none;shape=connector;rounded=0;orthogonalLoop=1;jettySize=auto;html=1;exitX=1;exitY=0.5;exitDx=0;exitDy=0;entryX=0;entryY=0.3333333333333333;entryDx=0;entryDy=0;entryPerimeter=0;strokeColor=default;align=center;verticalAlign=middle;fontFamily=Helvetica;fontSize=11;fontColor=default;labelBackgroundColor=default;endArrow=classic;" edge="1" parent="1" source="xZJvLFao9ESSEDFbBAeP-7" target="xZJvLFao9ESSEDFbBAeP-4">
          <mxGeometry relative="1" as="geometry" />
        </mxCell>
        <mxCell id="xZJvLFao9ESSEDFbBAeP-36" style="edgeStyle=none;shape=connector;rounded=0;orthogonalLoop=1;jettySize=auto;html=1;exitX=1;exitY=0.5;exitDx=0;exitDy=0;entryX=0;entryY=0.3333333333333333;entryDx=0;entryDy=0;entryPerimeter=0;strokeColor=default;align=center;verticalAlign=middle;fontFamily=Helvetica;fontSize=11;fontColor=default;labelBackgroundColor=default;endArrow=classic;" edge="1" parent="1" source="xZJvLFao9ESSEDFbBAeP-8" target="xZJvLFao9ESSEDFbBAeP-4">
          <mxGeometry relative="1" as="geometry" />
        </mxCell>
        <mxCell id="xZJvLFao9ESSEDFbBAeP-38" style="edgeStyle=none;shape=connector;rounded=0;orthogonalLoop=1;jettySize=auto;html=1;exitX=1;exitY=0.5;exitDx=0;exitDy=0;entryX=0;entryY=0.3333333333333333;entryDx=0;entryDy=0;entryPerimeter=0;strokeColor=default;align=center;verticalAlign=middle;fontFamily=Helvetica;fontSize=11;fontColor=default;labelBackgroundColor=default;endArrow=classic;" edge="1" parent="1" source="xZJvLFao9ESSEDFbBAeP-9" target="xZJvLFao9ESSEDFbBAeP-32">
          <mxGeometry relative="1" as="geometry" />
        </mxCell>
        <mxCell id="xZJvLFao9ESSEDFbBAeP-39" style="edgeStyle=none;shape=connector;rounded=0;orthogonalLoop=1;jettySize=auto;html=1;exitX=1;exitY=0.5;exitDx=0;exitDy=0;entryX=0;entryY=0.3333333333333333;entryDx=0;entryDy=0;entryPerimeter=0;strokeColor=default;align=center;verticalAlign=middle;fontFamily=Helvetica;fontSize=11;fontColor=default;labelBackgroundColor=default;endArrow=classic;" edge="1" parent="1" source="xZJvLFao9ESSEDFbBAeP-11" target="xZJvLFao9ESSEDFbBAeP-32">
          <mxGeometry relative="1" as="geometry" />
        </mxCell>
        <mxCell id="xZJvLFao9ESSEDFbBAeP-40" style="edgeStyle=none;shape=connector;rounded=0;orthogonalLoop=1;jettySize=auto;html=1;exitX=1;exitY=0.5;exitDx=0;exitDy=0;entryX=0;entryY=0.3333333333333333;entryDx=0;entryDy=0;entryPerimeter=0;strokeColor=default;align=center;verticalAlign=middle;fontFamily=Helvetica;fontSize=11;fontColor=default;labelBackgroundColor=default;endArrow=classic;" edge="1" parent="1" source="xZJvLFao9ESSEDFbBAeP-13" target="xZJvLFao9ESSEDFbBAeP-32">
          <mxGeometry relative="1" as="geometry" />
        </mxCell>
        <mxCell id="xZJvLFao9ESSEDFbBAeP-41" style="edgeStyle=none;shape=connector;rounded=0;orthogonalLoop=1;jettySize=auto;html=1;exitX=1;exitY=0.5;exitDx=0;exitDy=0;entryX=0;entryY=0.3333333333333333;entryDx=0;entryDy=0;entryPerimeter=0;strokeColor=default;align=center;verticalAlign=middle;fontFamily=Helvetica;fontSize=11;fontColor=default;labelBackgroundColor=default;endArrow=classic;" edge="1" parent="1" source="xZJvLFao9ESSEDFbBAeP-14" target="xZJvLFao9ESSEDFbBAeP-32">
          <mxGeometry relative="1" as="geometry" />
        </mxCell>
      </root>
    </mxGraphModel>
  </diagram>
</mxfile>
